<?xml version="1.0" encoding="utf-8"?>
<!-- Generator: Adobe Illustrator 24.0.1, SVG Export Plug-In . SVG Version: 6.00 Build 0)  -->
<svg version="1.1" id="Camada_1" xmlns="http://www.w3.org/2000/svg" xmlns:xlink="http://www.w3.org/1999/xlink" x="0px" y="0px"
	 viewBox="0 0 20 30" style="enable-background:new 0 0 20 30;" xml:space="preserve">
<style type="text/css">
	.st0{fill:#EA2121;stroke:#000000;stroke-width:0.5;stroke-miterlimit:10;}
	.st1{fill:#232DE8;stroke:#000000;stroke-width:0.5;stroke-miterlimit:10;}
	.st2{fill:#EA2121;stroke:#000000;stroke-width:0.1;stroke-miterlimit:10;}
	.st3{fill:#232DE8;stroke:#000000;stroke-width:0.1;stroke-miterlimit:10;}
</style>
<g>
	<polygon points="13.42,16.57 14.44,17.53 14.08,17.88 13.01,16.95 	"/>
	<path class="st0" d="M13.13,16.82H7.93c-0.07,0-0.13-0.06-0.13-0.13v-4.35c0-0.07,0.06-0.13,0.13-0.13h5.19
		c0.07,0,0.13,0.06,0.13,0.13v4.35C13.26,16.76,13.2,16.82,13.13,16.82z"/>
	<path class="st1" d="M14.07,17.78h-5c-0.13,0-0.23-0.1-0.23-0.23v-4.16c0-0.13,0.1-0.23,0.23-0.23h5c0.13,0,0.23,0.1,0.23,0.23
		v4.16C14.3,17.68,14.2,17.78,14.07,17.78z"/>
	<polygon points="13.42,12.09 14.45,13.09 14.05,13.41 13.01,12.45 	"/>
	<polygon points="8.07,16.57 9.09,17.53 8.73,17.88 7.65,16.95 	"/>
	<polygon points="8.07,12.09 9.09,13.05 8.73,13.41 7.65,12.47 	"/>
</g>
<path class="st2" d="M7.98,21.62H6.16v-3.5h0.41v3.13h1.41V21.62z"/>
<path class="st2" d="M9.51,21.68c-0.37,0-0.66-0.12-0.88-0.35c-0.22-0.23-0.33-0.54-0.33-0.93c0-0.42,0.11-0.75,0.34-0.98
	c0.23-0.24,0.54-0.35,0.93-0.35c0.37,0,0.66,0.12,0.87,0.34c0.21,0.23,0.31,0.55,0.31,0.96c0,0.4-0.11,0.72-0.34,0.96
	C10.19,21.56,9.89,21.68,9.51,21.68z M9.54,19.4c-0.26,0-0.46,0.09-0.61,0.26S8.7,20.08,8.7,20.38c0,0.3,0.08,0.53,0.23,0.7
	c0.15,0.17,0.35,0.26,0.61,0.26c0.26,0,0.46-0.08,0.6-0.25c0.14-0.17,0.21-0.41,0.21-0.72c0-0.31-0.07-0.55-0.21-0.72
	C10,19.48,9.8,19.4,9.54,19.4z"/>
<path class="st3" d="M13.53,21.42c0,0.92-0.44,1.38-1.32,1.38c-0.31,0-0.58-0.06-0.81-0.18v-0.4c0.28,0.16,0.55,0.23,0.81,0.23
	c0.62,0,0.92-0.33,0.92-0.98V21.2h-0.01c-0.19,0.32-0.48,0.48-0.86,0.48c-0.31,0-0.56-0.11-0.75-0.33c-0.19-0.22-0.28-0.52-0.28-0.9
	c0-0.42,0.1-0.76,0.31-1.01c0.2-0.25,0.48-0.38,0.84-0.38c0.34,0,0.59,0.13,0.75,0.41h0.01v-0.35h0.4V21.42z M13.13,20.49v-0.37
	c0-0.2-0.07-0.37-0.2-0.51c-0.13-0.14-0.3-0.21-0.5-0.21c-0.25,0-0.44,0.09-0.58,0.27c-0.14,0.18-0.21,0.43-0.21,0.76
	c0,0.28,0.07,0.5,0.2,0.67c0.13,0.17,0.31,0.25,0.53,0.25c0.22,0,0.41-0.08,0.55-0.24S13.13,20.74,13.13,20.49z"/>
<path class="st3" d="M15.38,21.68c-0.37,0-0.66-0.12-0.88-0.35s-0.33-0.54-0.33-0.93c0-0.42,0.12-0.75,0.34-0.98
	c0.23-0.24,0.54-0.35,0.93-0.35c0.37,0,0.66,0.12,0.87,0.34c0.21,0.23,0.31,0.55,0.31,0.96c0,0.4-0.11,0.72-0.34,0.96
	S15.76,21.68,15.38,21.68z M15.41,19.4c-0.26,0-0.46,0.09-0.61,0.26s-0.22,0.42-0.22,0.72c0,0.3,0.08,0.53,0.23,0.7
	c0.15,0.17,0.35,0.26,0.61,0.26c0.26,0,0.46-0.08,0.6-0.25c0.14-0.17,0.21-0.41,0.21-0.72c0-0.31-0.07-0.55-0.21-0.72
	C15.87,19.48,15.67,19.4,15.41,19.4z"/>
</svg>
